<svg width="183" height="154" viewBox="0 0 183 154" fill="none" xmlns="http://www.w3.org/2000/svg">
<g id="sms-icon">
<path id="Vector" d="M135.624 17.3619V136.638C135.624 146.21 128.252 154 119.192 154H61.0812C52.0217 154 44.6492 146.21 44.6492 136.638V17.3619C44.6492 7.78976 52.0217 0 61.0812 0H119.192C128.252 0 135.624 7.78976 135.624 17.3619Z" fill="white"/>
<path id="Vector_2" d="M135.624 17.3619V136.638C135.624 146.21 128.252 154 119.192 154H90.1335V0H119.192C128.252 0 135.624 7.78976 135.624 17.3619Z" fill="white"/>
<path id="Vector_3" d="M119.192 0H61.0812C52.0217 0 44.6492 7.78976 44.6492 17.3619V136.638C44.6492 146.21 52.0217 154 61.0812 154H119.192C128.252 154 135.624 146.21 135.624 136.638V17.3619C135.624 7.78976 128.252 0 119.192 0V0ZM127.081 136.638C127.081 141.233 123.541 144.973 119.192 144.973H61.0812C56.7322 144.973 53.1927 141.233 53.1927 136.638V17.3619C53.1927 12.7668 56.7322 9.02696 61.0812 9.02696H68.8841V13.8594C68.8841 18.6343 72.5604 22.5186 77.0796 22.5186H103.194C107.713 22.5186 111.389 18.6343 111.389 13.8594V9.02696H119.192C123.541 9.02696 127.081 12.7668 127.081 17.3619V136.638Z" fill="#0054D2"/>
<path id="Vector_4" d="M102.793 132.095C102.793 134.589 100.879 136.609 98.5205 136.609H81.7538C79.3952 136.609 77.4814 134.589 77.4814 132.095C77.4814 129.604 79.3952 127.582 81.7538 127.582H98.5205C100.879 127.582 102.793 129.604 102.793 132.095Z" fill="#0054D2"/>
<path id="Vector_5" d="M135.624 17.3619V136.638C135.624 146.21 128.252 154 119.192 154H90.1335V144.973H119.192C123.541 144.973 127.081 141.233 127.081 136.638V17.3619C127.081 12.7668 123.541 9.02696 119.192 9.02696H111.389V13.8594C111.389 18.6343 107.713 22.5186 103.194 22.5186H90.1335V0H119.192C128.252 0 135.624 7.78976 135.624 17.3619Z" fill="#0054D2"/>
<path id="Vector_6" d="M102.793 132.095C102.793 134.589 100.879 136.609 98.5203 136.609H90.1335V127.582H98.5203C100.879 127.582 102.793 129.604 102.793 132.095Z" fill="#0054D2"/>
<path id="Vector_7" d="M176.138 61.8752V78.7048C176.138 90.0569 167.398 99.2919 156.653 99.2919H118.923L105.182 106.621C104.368 107.126 103.454 107.382 102.537 107.382C101.714 107.382 100.886 107.174 100.122 106.756C98.3824 105.8 97.2993 103.919 97.2993 101.849V61.8752C97.2993 50.523 106.042 41.2881 116.784 41.2881H156.653C167.398 41.2881 176.138 50.523 176.138 61.8752Z" fill="#0054D2"/>
<path id="Vector_8" d="M176.138 61.8752V78.7048C176.138 90.0569 167.398 99.2919 156.654 99.2919H135.626V41.2881H156.654C167.398 41.2881 176.138 50.523 176.138 61.8752Z" fill="#0054D2"/>
<path id="Vector_9" d="M159.681 61.9291C159.681 64.4235 157.767 66.4432 155.409 66.4432H118.032C115.671 66.4432 113.76 64.4235 113.76 61.9291C113.76 59.4383 115.671 57.4162 118.032 57.4162H155.409C157.767 57.4162 159.681 59.4383 159.681 61.9291Z" fill="white"/>
<path id="Vector_10" d="M159.68 77.3441C159.68 79.835 157.766 81.857 155.409 81.857H136.718C136.339 81.857 135.975 81.8065 135.625 81.7066C133.797 81.1991 132.447 79.4355 132.447 77.3441C132.447 75.2504 133.797 73.4892 135.625 72.9816C135.975 72.8818 136.339 72.8312 136.718 72.8312H155.409C157.766 72.8312 159.68 74.8498 159.68 77.3441Z" fill="white"/>
<g id="Group">
<path id="Vector_11" d="M159.68 77.3441C159.68 79.835 157.766 81.857 155.409 81.857H136.718C136.339 81.857 135.976 81.8065 135.625 81.7066V72.9816C135.976 72.8818 136.339 72.8312 136.718 72.8312H155.409C157.766 72.8312 159.68 74.8498 159.68 77.3441Z" fill="#ECECEC"/>
<path id="Vector_12" d="M155.409 66.4432H135.625V57.4162H155.409C157.767 57.4162 159.68 59.4383 159.68 61.9291C159.68 64.4235 157.767 66.4432 155.409 66.4432Z" fill="#ECECEC"/>
</g>
</g>
</svg>
